<mxfile host="65bd71144e">
    <diagram name="ページ1" id="d84EBmqVeiF_Ef1BVVv9">
        <mxGraphModel dx="1817" dy="717" grid="1" gridSize="10" guides="1" tooltips="1" connect="1" arrows="1" fold="1" page="1" pageScale="1" pageWidth="827" pageHeight="1169" math="0" shadow="0">
            <root>
                <mxCell id="0"/>
                <mxCell id="1" parent="0"/>
                <mxCell id="2" value="" style="rounded=0;whiteSpace=wrap;html=1;fillColor=none;dashed=1;dashPattern=8 8;" vertex="1" parent="1">
                    <mxGeometry x="-170" y="130" width="1200" height="760" as="geometry"/>
                </mxCell>
                <mxCell id="BorFEs2V50OKoDqsmod9-28" value="" style="rounded=0;whiteSpace=wrap;html=1;fillColor=none;dashed=1;dashPattern=8 8;" parent="1" vertex="1">
                    <mxGeometry x="-160" y="140" width="1180" height="710" as="geometry"/>
                </mxCell>
                <mxCell id="ViltuDi_cdEyqXIKcxbZ-56" value="" style="rounded=0;whiteSpace=wrap;html=1;fillColor=none;" parent="1" vertex="1">
                    <mxGeometry x="440" y="540" width="570" height="270" as="geometry"/>
                </mxCell>
                <mxCell id="ViltuDi_cdEyqXIKcxbZ-1" value="" style="rounded=0;whiteSpace=wrap;html=1;fillColor=none;" parent="1" vertex="1">
                    <mxGeometry x="440" y="240" width="570" height="200" as="geometry"/>
                </mxCell>
                <mxCell id="ViltuDi_cdEyqXIKcxbZ-2" value="" style="rounded=0;whiteSpace=wrap;html=1;fillColor=none;" parent="1" vertex="1">
                    <mxGeometry x="520" y="260" width="240" height="100" as="geometry"/>
                </mxCell>
                <mxCell id="ViltuDi_cdEyqXIKcxbZ-4" value="" style="rounded=0;whiteSpace=wrap;html=1;fillColor=none;" parent="1" vertex="1">
                    <mxGeometry x="520" y="380" width="240" height="50" as="geometry"/>
                </mxCell>
                <mxCell id="ViltuDi_cdEyqXIKcxbZ-3" value="192.168.100.215:25565" style="text;html=1;align=center;verticalAlign=middle;whiteSpace=wrap;rounded=0;" parent="1" vertex="1">
                    <mxGeometry x="630" y="340" width="130" height="20" as="geometry"/>
                </mxCell>
                <mxCell id="ViltuDi_cdEyqXIKcxbZ-5" value="192.168.100.215:25585" style="text;html=1;align=center;verticalAlign=middle;whiteSpace=wrap;rounded=0;" parent="1" vertex="1">
                    <mxGeometry x="630" y="410" width="130" height="20" as="geometry"/>
                </mxCell>
                <mxCell id="ViltuDi_cdEyqXIKcxbZ-6" value="MAIN" style="text;html=1;align=center;verticalAlign=middle;whiteSpace=wrap;rounded=0;" parent="1" vertex="1">
                    <mxGeometry x="710" y="260" width="50" height="20" as="geometry"/>
                </mxCell>
                <mxCell id="ViltuDi_cdEyqXIKcxbZ-7" value="TEST" style="text;html=1;align=center;verticalAlign=middle;whiteSpace=wrap;rounded=0;" parent="1" vertex="1">
                    <mxGeometry x="710" y="380" width="50" height="20" as="geometry"/>
                </mxCell>
                <mxCell id="ViltuDi_cdEyqXIKcxbZ-8" value="DELL POWEREDGE R620" style="text;html=1;align=center;verticalAlign=middle;whiteSpace=wrap;rounded=0;" parent="1" vertex="1">
                    <mxGeometry x="602" y="210" width="130" height="30" as="geometry"/>
                </mxCell>
                <mxCell id="ViltuDi_cdEyqXIKcxbZ-9" value="" style="rounded=0;whiteSpace=wrap;html=1;fillColor=none;" parent="1" vertex="1">
                    <mxGeometry x="-130" y="240" width="530" height="520" as="geometry"/>
                </mxCell>
                <mxCell id="ViltuDi_cdEyqXIKcxbZ-11" value="ThinkStation&lt;div&gt;P320 SFF&lt;/div&gt;" style="text;html=1;align=center;verticalAlign=middle;whiteSpace=wrap;rounded=0;" parent="1" vertex="1">
                    <mxGeometry x="-87" y="207.5" width="80" height="30" as="geometry"/>
                </mxCell>
                <mxCell id="ViltuDi_cdEyqXIKcxbZ-12" value="" style="rounded=0;whiteSpace=wrap;html=1;fillColor=none;" parent="1" vertex="1">
                    <mxGeometry x="-120" y="260" width="510" height="180" as="geometry"/>
                </mxCell>
                <mxCell id="ViltuDi_cdEyqXIKcxbZ-13" value="Proxy" style="text;html=1;align=center;verticalAlign=middle;whiteSpace=wrap;rounded=0;" parent="1" vertex="1">
                    <mxGeometry x="-120" y="240" width="40" height="20" as="geometry"/>
                </mxCell>
                <mxCell id="ViltuDi_cdEyqXIKcxbZ-15" value="" style="rounded=0;whiteSpace=wrap;html=1;fillColor=none;" parent="1" vertex="1">
                    <mxGeometry x="120" y="270" width="270" height="150" as="geometry"/>
                </mxCell>
                <mxCell id="ViltuDi_cdEyqXIKcxbZ-17" value="Minecraft Proxy Velocity&amp;nbsp;" style="text;html=1;align=center;verticalAlign=middle;whiteSpace=wrap;rounded=0;" parent="1" vertex="1">
                    <mxGeometry x="120" y="270" width="140" height="20" as="geometry"/>
                </mxCell>
                <mxCell id="ViltuDi_cdEyqXIKcxbZ-22" value="" style="endArrow=classic;html=1;rounded=0;entryX=0;entryY=0.25;entryDx=0;entryDy=0;exitX=1;exitY=0.25;exitDx=0;exitDy=0;" parent="1" source="ViltuDi_cdEyqXIKcxbZ-12" target="ViltuDi_cdEyqXIKcxbZ-2" edge="1">
                    <mxGeometry width="50" height="50" relative="1" as="geometry">
                        <mxPoint x="260" y="330" as="sourcePoint"/>
                        <mxPoint x="380" y="273" as="targetPoint"/>
                        <Array as="points">
                            <mxPoint x="470" y="305"/>
                        </Array>
                    </mxGeometry>
                </mxCell>
                <mxCell id="ViltuDi_cdEyqXIKcxbZ-23" value="" style="endArrow=classic;html=1;rounded=0;entryX=0;entryY=0.25;entryDx=0;entryDy=0;dashed=1;shape=link;exitX=1;exitY=0.25;exitDx=0;exitDy=0;" parent="1" source="ViltuDi_cdEyqXIKcxbZ-12" target="ViltuDi_cdEyqXIKcxbZ-4" edge="1">
                    <mxGeometry width="50" height="50" relative="1" as="geometry">
                        <mxPoint x="260" y="330" as="sourcePoint"/>
                        <mxPoint x="380" y="273" as="targetPoint"/>
                        <Array as="points">
                            <mxPoint x="470" y="393"/>
                        </Array>
                    </mxGeometry>
                </mxCell>
                <mxCell id="ViltuDi_cdEyqXIKcxbZ-35" value="" style="strokeColor=#666666;html=1;labelPosition=right;align=left;spacingLeft=15;shadow=0;dashed=0;outlineConnect=0;shape=mxgraph.rack.dell.dell_poweredge_1u;" parent="1" vertex="1">
                    <mxGeometry x="440" y="225" width="162" height="15" as="geometry"/>
                </mxCell>
                <mxCell id="ViltuDi_cdEyqXIKcxbZ-36" value="" style="strokeColor=#666666;html=1;verticalLabelPosition=bottom;labelBackgroundColor=#ffffff;verticalAlign=top;outlineConnect=0;shadow=0;dashed=0;shape=mxgraph.rack.general.server_1;rotation=0;" parent="1" vertex="1">
                    <mxGeometry x="-130" y="151.64" width="43" height="88.36" as="geometry"/>
                </mxCell>
                <mxCell id="ViltuDi_cdEyqXIKcxbZ-43" value="" style="rounded=0;whiteSpace=wrap;html=1;fillColor=none;" parent="1" vertex="1">
                    <mxGeometry x="-110" y="270" width="170" height="110" as="geometry"/>
                </mxCell>
                <mxCell id="ViltuDi_cdEyqXIKcxbZ-45" value="" style="endArrow=classic;html=1;rounded=0;exitX=1;exitY=0.5;exitDx=0;exitDy=0;entryX=0;entryY=0.25;entryDx=0;entryDy=0;" parent="1" source="BorFEs2V50OKoDqsmod9-34" target="ViltuDi_cdEyqXIKcxbZ-31" edge="1">
                    <mxGeometry width="130" height="405" relative="1" as="geometry">
                        <mxPoint x="150" y="365.34" as="sourcePoint"/>
                        <mxPoint x="187" y="364.65" as="targetPoint"/>
                        <Array as="points">
                            <mxPoint x="80" y="365"/>
                            <mxPoint x="80" y="473"/>
                            <mxPoint x="110" y="473"/>
                        </Array>
                    </mxGeometry>
                </mxCell>
                <mxCell id="ViltuDi_cdEyqXIKcxbZ-46" value="" style="endArrow=classic;html=1;rounded=0;exitX=1;exitY=0.5;exitDx=0;exitDy=0;entryX=0.001;entryY=0.201;entryDx=0;entryDy=0;entryPerimeter=0;" parent="1" source="BorFEs2V50OKoDqsmod9-32" target="ViltuDi_cdEyqXIKcxbZ-15" edge="1">
                    <mxGeometry width="50" height="50" relative="1" as="geometry">
                        <mxPoint x="81.99600000000005" y="300.33000000000004" as="sourcePoint"/>
                        <mxPoint x="117.46" y="300" as="targetPoint"/>
                    </mxGeometry>
                </mxCell>
                <mxCell id="ViltuDi_cdEyqXIKcxbZ-47" value="" style="endArrow=classic;html=1;rounded=0;entryX=0.75;entryY=0;entryDx=0;entryDy=0;exitX=0.75;exitY=1;exitDx=0;exitDy=0;dashed=1;shape=link;" parent="1" source="ViltuDi_cdEyqXIKcxbZ-2" target="ViltuDi_cdEyqXIKcxbZ-4" edge="1">
                    <mxGeometry width="50" height="50" relative="1" as="geometry">
                        <mxPoint x="632" y="400" as="sourcePoint"/>
                        <mxPoint x="742" y="463" as="targetPoint"/>
                    </mxGeometry>
                </mxCell>
                <mxCell id="ViltuDi_cdEyqXIKcxbZ-48" value="TCP/ mc.:25565&lt;div&gt;UDP/ mc.:19132&lt;/div&gt;" style="text;html=1;align=center;verticalAlign=middle;whiteSpace=wrap;rounded=0;" parent="1" vertex="1">
                    <mxGeometry x="120" y="390" width="145" height="30" as="geometry"/>
                </mxCell>
                <mxCell id="ViltuDi_cdEyqXIKcxbZ-52" value="Nginx Web Proxy" style="text;html=1;align=center;verticalAlign=middle;whiteSpace=wrap;rounded=0;" parent="1" vertex="1">
                    <mxGeometry x="-109" y="270" width="102" height="30" as="geometry"/>
                </mxCell>
                <mxCell id="ViltuDi_cdEyqXIKcxbZ-53" value="node: saba02&lt;div&gt;192.168.100.12&lt;/div&gt;" style="text;html=1;align=center;verticalAlign=middle;whiteSpace=wrap;rounded=0;" parent="1" vertex="1">
                    <mxGeometry x="910" y="780" width="90" height="28.36" as="geometry"/>
                </mxCell>
                <mxCell id="ViltuDi_cdEyqXIKcxbZ-54" value="node: saba01&lt;div&gt;192.168.100.11&lt;/div&gt;" style="text;html=1;align=center;verticalAlign=middle;whiteSpace=wrap;rounded=0;" parent="1" vertex="1">
                    <mxGeometry x="915" y="410" width="90" height="30" as="geometry"/>
                </mxCell>
                <mxCell id="ViltuDi_cdEyqXIKcxbZ-55" value="" style="strokeColor=#666666;html=1;verticalLabelPosition=bottom;labelBackgroundColor=#ffffff;verticalAlign=top;outlineConnect=0;shadow=0;dashed=0;shape=mxgraph.rack.general.server_2;" parent="1" vertex="1">
                    <mxGeometry x="440" y="450" width="43" height="88.36" as="geometry"/>
                </mxCell>
                <mxCell id="ViltuDi_cdEyqXIKcxbZ-57" value="HP Prodesk&lt;div&gt;600 G3 SFF&lt;/div&gt;" style="text;html=1;align=center;verticalAlign=middle;whiteSpace=wrap;rounded=0;" parent="1" vertex="1">
                    <mxGeometry x="483" y="508.36" width="80" height="30" as="geometry"/>
                </mxCell>
                <mxCell id="ViltuDi_cdEyqXIKcxbZ-59" value="" style="rounded=0;whiteSpace=wrap;html=1;fillColor=none;" parent="1" vertex="1">
                    <mxGeometry x="530" y="280" width="190" height="50" as="geometry"/>
                </mxCell>
                <mxCell id="ViltuDi_cdEyqXIKcxbZ-60" value="192.168.100.215:8100" style="text;html=1;align=center;verticalAlign=middle;whiteSpace=wrap;rounded=0;" parent="1" vertex="1">
                    <mxGeometry x="590" y="310" width="130" height="20" as="geometry"/>
                </mxCell>
                <mxCell id="ViltuDi_cdEyqXIKcxbZ-61" value="MAP" style="text;html=1;align=center;verticalAlign=middle;whiteSpace=wrap;rounded=0;" parent="1" vertex="1">
                    <mxGeometry x="670" y="280" width="50" height="20" as="geometry"/>
                </mxCell>
                <mxCell id="ViltuDi_cdEyqXIKcxbZ-62" value="Web" style="text;html=1;align=center;verticalAlign=middle;whiteSpace=wrap;rounded=0;" parent="1" vertex="1">
                    <mxGeometry x="530" y="280" width="40" height="20" as="geometry"/>
                </mxCell>
                <mxCell id="ViltuDi_cdEyqXIKcxbZ-63" value="Minecraft Paper" style="text;html=1;align=center;verticalAlign=middle;whiteSpace=wrap;rounded=0;" parent="1" vertex="1">
                    <mxGeometry x="520" y="260" width="100" height="20" as="geometry"/>
                </mxCell>
                <mxCell id="ViltuDi_cdEyqXIKcxbZ-64" value="Minecraft Paper" style="text;html=1;align=center;verticalAlign=middle;whiteSpace=wrap;rounded=0;" parent="1" vertex="1">
                    <mxGeometry x="520" y="380" width="100" height="20" as="geometry"/>
                </mxCell>
                <mxCell id="ViltuDi_cdEyqXIKcxbZ-69" value="" style="endArrow=classic;html=1;rounded=0;" parent="1" edge="1">
                    <mxGeometry relative="1" as="geometry">
                        <mxPoint x="120" y="310" as="sourcePoint"/>
                        <mxPoint x="389" y="310" as="targetPoint"/>
                    </mxGeometry>
                </mxCell>
                <mxCell id="ViltuDi_cdEyqXIKcxbZ-71" value="JAVA: TCP 25565" style="edgeLabel;resizable=0;html=1;;align=left;verticalAlign=bottom;labelBackgroundColor=none;" parent="ViltuDi_cdEyqXIKcxbZ-69" connectable="0" vertex="1">
                    <mxGeometry x="-1" relative="1" as="geometry"/>
                </mxCell>
                <mxCell id="ViltuDi_cdEyqXIKcxbZ-72" value="192.168.100.215" style="edgeLabel;resizable=0;html=1;;align=right;verticalAlign=bottom;labelBackgroundColor=none;" parent="ViltuDi_cdEyqXIKcxbZ-69" connectable="0" vertex="1">
                    <mxGeometry x="1" relative="1" as="geometry">
                        <mxPoint x="-9" as="offset"/>
                    </mxGeometry>
                </mxCell>
                <mxCell id="ViltuDi_cdEyqXIKcxbZ-73" value="" style="endArrow=classic;html=1;rounded=0;entryX=1;entryY=0.5;entryDx=0;entryDy=0;exitX=0;exitY=0.5;exitDx=0;exitDy=0;" parent="1" source="ViltuDi_cdEyqXIKcxbZ-15" target="ViltuDi_cdEyqXIKcxbZ-15" edge="1">
                    <mxGeometry relative="1" as="geometry">
                        <mxPoint x="121" y="330" as="sourcePoint"/>
                        <mxPoint x="380" y="331" as="targetPoint"/>
                    </mxGeometry>
                </mxCell>
                <mxCell id="ViltuDi_cdEyqXIKcxbZ-74" value="Geyser / Floodgate" style="edgeLabel;resizable=0;html=1;;align=center;verticalAlign=middle;labelBackgroundColor=none;" parent="ViltuDi_cdEyqXIKcxbZ-73" connectable="0" vertex="1">
                    <mxGeometry relative="1" as="geometry">
                        <mxPoint x="15" y="5" as="offset"/>
                    </mxGeometry>
                </mxCell>
                <mxCell id="ViltuDi_cdEyqXIKcxbZ-75" value="BEDROCK: UDP 19132" style="edgeLabel;resizable=0;html=1;;align=left;verticalAlign=bottom;labelBackgroundColor=none;" parent="ViltuDi_cdEyqXIKcxbZ-73" connectable="0" vertex="1">
                    <mxGeometry x="-1" relative="1" as="geometry">
                        <mxPoint y="-5" as="offset"/>
                    </mxGeometry>
                </mxCell>
                <mxCell id="ViltuDi_cdEyqXIKcxbZ-76" value="192.168.100.215" style="edgeLabel;resizable=0;html=1;;align=right;verticalAlign=bottom;labelBackgroundColor=none;" parent="ViltuDi_cdEyqXIKcxbZ-73" connectable="0" vertex="1">
                    <mxGeometry x="1" relative="1" as="geometry">
                        <mxPoint x="-10" y="-5" as="offset"/>
                    </mxGeometry>
                </mxCell>
                <mxCell id="BorFEs2V50OKoDqsmod9-2" value="" style="rounded=0;whiteSpace=wrap;html=1;fillColor=none;" parent="1" vertex="1">
                    <mxGeometry x="480" y="560" width="520" height="210" as="geometry"/>
                </mxCell>
                <mxCell id="BorFEs2V50OKoDqsmod9-4" value="192.168.100.15" style="text;html=1;align=center;verticalAlign=middle;whiteSpace=wrap;rounded=0;" parent="1" vertex="1">
                    <mxGeometry x="910" y="750" width="90" height="20" as="geometry"/>
                </mxCell>
                <mxCell id="BorFEs2V50OKoDqsmod9-22" value="" style="shape=link;html=1;rounded=0;strokeColor=#CCCCCC;exitX=1;exitY=0.5;exitDx=0;exitDy=0;" parent="1" source="BorFEs2V50OKoDqsmod9-37" edge="1">
                    <mxGeometry width="100" relative="1" as="geometry">
                        <mxPoint x="-294" y="295" as="sourcePoint"/>
                        <mxPoint x="-110" y="335" as="targetPoint"/>
                    </mxGeometry>
                </mxCell>
                <mxCell id="BorFEs2V50OKoDqsmod9-23" value="" style="group" parent="1" connectable="0" vertex="1">
                    <mxGeometry x="120" y="430" width="270" height="70" as="geometry"/>
                </mxCell>
                <mxCell id="ViltuDi_cdEyqXIKcxbZ-31" value="" style="rounded=0;whiteSpace=wrap;html=1;fillColor=none;" parent="BorFEs2V50OKoDqsmod9-23" vertex="1">
                    <mxGeometry y="30" width="270" height="50" as="geometry"/>
                </mxCell>
                <mxCell id="ViltuDi_cdEyqXIKcxbZ-32" value="ANARCHY" style="text;html=1;align=center;verticalAlign=middle;whiteSpace=wrap;rounded=0;" parent="BorFEs2V50OKoDqsmod9-23" vertex="1">
                    <mxGeometry x="197.30769230769232" y="30" width="72.6923076923077" height="20" as="geometry"/>
                </mxCell>
                <mxCell id="BorFEs2V50OKoDqsmod9-24" value="Minecraft Paper" style="text;html=1;align=center;verticalAlign=middle;whiteSpace=wrap;rounded=0;" parent="BorFEs2V50OKoDqsmod9-23" vertex="1">
                    <mxGeometry y="30" width="100" height="20" as="geometry"/>
                </mxCell>
                <mxCell id="ViltuDi_cdEyqXIKcxbZ-14" value="192.168.100.4" style="text;html=1;align=center;verticalAlign=middle;whiteSpace=wrap;rounded=0;" parent="BorFEs2V50OKoDqsmod9-23" vertex="1">
                    <mxGeometry x="190" y="-10" width="80" height="20" as="geometry"/>
                </mxCell>
                <mxCell id="BorFEs2V50OKoDqsmod9-25" value="Nginx&amp;nbsp;" style="text;html=1;align=center;verticalAlign=middle;whiteSpace=wrap;rounded=0;" parent="1" vertex="1">
                    <mxGeometry x="480" y="540" width="53" height="20" as="geometry"/>
                </mxCell>
                <mxCell id="BorFEs2V50OKoDqsmod9-27" value="node: saba&lt;div&gt;192.168.100.10&lt;/div&gt;" style="text;html=1;align=center;verticalAlign=middle;whiteSpace=wrap;rounded=0;" parent="1" vertex="1">
                    <mxGeometry x="300" y="720" width="100" height="30" as="geometry"/>
                </mxCell>
                <mxCell id="BorFEs2V50OKoDqsmod9-29" value="Proxmox Cluster" style="sketch=0;outlineConnect=0;fontColor=#232F3E;gradientColor=none;strokeColor=#232F3E;fillColor=none;dashed=0;verticalLabelPosition=bottom;verticalAlign=top;align=center;html=1;fontSize=12;fontStyle=0;aspect=fixed;shape=mxgraph.aws4.resourceIcon;resIcon=mxgraph.aws4.cluster;" parent="1" vertex="1">
                    <mxGeometry x="930" y="147.5" width="60" height="60" as="geometry"/>
                </mxCell>
                <mxCell id="BorFEs2V50OKoDqsmod9-31" value="Datacenter&lt;div&gt;192.168.100.10&lt;/div&gt;" style="text;html=1;align=center;verticalAlign=middle;whiteSpace=wrap;rounded=0;" parent="1" vertex="1">
                    <mxGeometry x="925" y="820" width="85" height="30" as="geometry"/>
                </mxCell>
                <mxCell id="BorFEs2V50OKoDqsmod9-32" value="mc." style="text;html=1;align=center;verticalAlign=middle;whiteSpace=wrap;rounded=0;fillColor=default;fillStyle=auto;fontStyle=0;fontColor=#333333;" parent="1" vertex="1">
                    <mxGeometry x="20" y="290" width="30" height="20" as="geometry"/>
                </mxCell>
                <mxCell id="BorFEs2V50OKoDqsmod9-33" value="note.&lt;div&gt;files.&lt;/div&gt;" style="text;html=1;align=center;verticalAlign=middle;whiteSpace=wrap;rounded=0;fillColor=default;fontColor=#333333;strokeColor=none;fillStyle=auto;labelBorderColor=none;perimeterSpacing=0;fontStyle=0" parent="1" vertex="1">
                    <mxGeometry x="20" y="310" width="30" height="37.5" as="geometry"/>
                </mxCell>
                <mxCell id="BorFEs2V50OKoDqsmod9-34" value="???" style="text;html=1;align=center;verticalAlign=middle;whiteSpace=wrap;rounded=0;fillColor=default;fillStyle=auto;glass=0;fontStyle=0" parent="1" vertex="1">
                    <mxGeometry x="20" y="355" width="30" height="20" as="geometry"/>
                </mxCell>
                <mxCell id="BorFEs2V50OKoDqsmod9-26" style="edgeStyle=orthogonalEdgeStyle;rounded=0;orthogonalLoop=1;jettySize=auto;html=1;exitX=0.987;exitY=0.532;exitDx=0;exitDy=0;entryX=0;entryY=0.25;entryDx=0;entryDy=0;exitPerimeter=0;" parent="1" source="BorFEs2V50OKoDqsmod9-33" target="BorFEs2V50OKoDqsmod9-2" edge="1">
                    <mxGeometry relative="1" as="geometry">
                        <mxPoint x="50" y="330.00000000000006" as="sourcePoint"/>
                        <mxPoint x="508.9499999999998" y="755.56" as="targetPoint"/>
                        <Array as="points">
                            <mxPoint x="100" y="330"/>
                            <mxPoint x="100" y="520"/>
                            <mxPoint x="420" y="520"/>
                            <mxPoint x="420" y="613"/>
                        </Array>
                    </mxGeometry>
                </mxCell>
                <mxCell id="BorFEs2V50OKoDqsmod9-36" value="" style="group;fontColor=#666666;" parent="1" connectable="0" vertex="1">
                    <mxGeometry x="-360" y="245" width="103.32999999999998" height="165" as="geometry"/>
                </mxCell>
                <mxCell id="BorFEs2V50OKoDqsmod9-8" value="&lt;b&gt;Internet&lt;/b&gt;" style="ellipse;shape=cloud;whiteSpace=wrap;html=1;align=center;strokeColor=#CCCCCC;fontColor=#444444;" parent="BorFEs2V50OKoDqsmod9-36" vertex="1">
                    <mxGeometry width="103.33" height="55" as="geometry"/>
                </mxCell>
                <mxCell id="BorFEs2V50OKoDqsmod9-17" value="" style="group" parent="BorFEs2V50OKoDqsmod9-36" connectable="0" vertex="1">
                    <mxGeometry x="11.670000000000016" y="75" width="80" height="90" as="geometry"/>
                </mxCell>
                <mxCell id="BorFEs2V50OKoDqsmod9-12" value="CloudFlare&lt;br&gt;DNS / Proxy" style="sketch=0;html=1;verticalAlign=top;labelPosition=center;verticalLabelPosition=bottom;align=center;spacingTop=-6;fontSize=11;fontStyle=1;fontColor=#999999;shape=image;aspect=fixed;imageAspect=0;image=data:image/svg+xml,PHN2ZyB4bWxucz0iaHR0cDovL3d3dy53My5vcmcvMjAwMC9zdmciIHhtbG5zOnY9Imh0dHBzOi8vdmVjdGEuaW8vbmFubyIgd2lkdGg9IjIwIiBoZWlnaHQ9IjIwIiB2aWV3Qm94PSIwIDAgMjAgMjAiPiYjeGE7CTxzdHlsZSB0eXBlPSJ0ZXh0L2NzcyI+JiN4YTsJLnN0MHtmaWxsOiM0Mjg1ZjQ7fSYjeGE7CS5zdDF7ZmlsbDojNjY5ZGY2O30mI3hhOwkuc3Qye2ZpbGw6I2FlY2JmYTt9JiN4YTsJLnN0M3tmaWxsOiNmZmY7fSYjeGE7CTwvc3R5bGU+JiN4YTsJPHBhdGggY2xhc3M9InN0MCIgZD0iTTkgNmgydjEwSDl6Ii8+JiN4YTsJPHBhdGggY2xhc3M9InN0MSIgZD0iTTIwIDE3SDB2MmgyMHoiLz4mI3hhOwk8cGF0aCBjbGFzcz0ic3QyIiBkPSJNMTIgMTZIOHY0aDR6TTAgMGgyMHY2SDB6Ii8+JiN4YTsJPHBhdGggY2xhc3M9InN0MSIgZD0iTTEwIDBoMTB2NkgxMHoiLz4mI3hhOwk8cGF0aCBjbGFzcz0ic3QzIiBkPSJNMiAyaDJ2MkgyeiIvPiYjeGE7CTxwYXRoIGNsYXNzPSJzdDIiIGQ9Ik0wIDhoMjB2NkgweiIvPiYjeGE7CTxwYXRoIGNsYXNzPSJzdDEiIGQ9Ik0xMCA4aDEwdjZIMTB6Ii8+JiN4YTsJPHBhdGggY2xhc3M9InN0MyIgZD0iTTIgMTBoMnYySDJ6Ii8+JiN4YTs8L3N2Zz4=;" parent="BorFEs2V50OKoDqsmod9-17" vertex="1">
                    <mxGeometry x="19" width="42" height="42" as="geometry"/>
                </mxCell>
                <mxCell id="BorFEs2V50OKoDqsmod9-16" value="&lt;font style=&quot;color: rgb(128, 128, 128);&quot;&gt;&lt;b&gt;*.&lt;/b&gt;&lt;/font&gt;" style="text;html=1;align=center;verticalAlign=middle;whiteSpace=wrap;rounded=0;fontStyle=0;fontColor=#333333;" parent="BorFEs2V50OKoDqsmod9-17" vertex="1">
                    <mxGeometry y="70" width="80" height="20" as="geometry"/>
                </mxCell>
                <mxCell id="BorFEs2V50OKoDqsmod9-20" value="" style="shape=link;html=1;rounded=0;entryX=0.5;entryY=0;entryDx=0;entryDy=0;strokeColor=#CCCCCC;exitX=0.503;exitY=0.941;exitDx=0;exitDy=0;exitPerimeter=0;" parent="BorFEs2V50OKoDqsmod9-36" source="BorFEs2V50OKoDqsmod9-8" target="BorFEs2V50OKoDqsmod9-12" edge="1">
                    <mxGeometry width="100" relative="1" as="geometry">
                        <mxPoint x="-28.329999999999984" y="35" as="sourcePoint"/>
                        <mxPoint x="101.67000000000002" y="35" as="targetPoint"/>
                    </mxGeometry>
                </mxCell>
                <mxCell id="BorFEs2V50OKoDqsmod9-38" value="" style="shape=link;html=1;rounded=0;entryX=0;entryY=0.5;entryDx=0;entryDy=0;strokeColor=#CCCCCC;exitX=0.998;exitY=0.347;exitDx=0;exitDy=0;exitPerimeter=0;" parent="1" source="BorFEs2V50OKoDqsmod9-12" target="BorFEs2V50OKoDqsmod9-37" edge="1">
                    <mxGeometry width="100" relative="1" as="geometry">
                        <mxPoint x="-357" y="336" as="sourcePoint"/>
                        <mxPoint x="-110" y="335" as="targetPoint"/>
                    </mxGeometry>
                </mxCell>
                <mxCell id="BorFEs2V50OKoDqsmod9-40" value="" style="group" parent="1" connectable="0" vertex="1">
                    <mxGeometry x="-248.99999999999997" y="314" width="80" height="91" as="geometry"/>
                </mxCell>
                <mxCell id="BorFEs2V50OKoDqsmod9-37" value="&lt;div&gt;RTX810&lt;/div&gt;Router" style="sketch=0;html=1;verticalAlign=top;labelPosition=center;verticalLabelPosition=bottom;align=center;spacingTop=-6;fontSize=11;fontStyle=1;fontColor=#999999;shape=image;aspect=fixed;imageAspect=0;image=data:image/svg+xml,PHN2ZyB4bWxucz0iaHR0cDovL3d3dy53My5vcmcvMjAwMC9zdmciIHhtbG5zOnY9Imh0dHBzOi8vdmVjdGEuaW8vbmFubyIgd2lkdGg9IjIwIiBoZWlnaHQ9IjIwIiB2aWV3Qm94PSIwIDAgMjAgMjAiPiYjeGE7CTxzdHlsZSB0eXBlPSJ0ZXh0L2NzcyI+JiN4YTsJLnN0MHtmaWxsOiM0Mjg1ZjQ7fSYjeGE7CTwvc3R5bGU+JiN4YTsJPHBhdGggY2xhc3M9InN0MCIgZD0iTTE3IDEydjNsLTUtNSA1LTV2M2gzdjR6TTMgOEgwdjRoM3YzbDUtNS01LTV6bTkgN3YtM0g4djNINWw1IDUgNS01em0wLTEwdjNIOFY1SDVsNS01IDUgNXoiLz4mI3hhOzwvc3ZnPg==;" parent="BorFEs2V50OKoDqsmod9-40" vertex="1">
                    <mxGeometry x="18.99999999999997" width="42" height="42" as="geometry"/>
                </mxCell>
                <mxCell id="BorFEs2V50OKoDqsmod9-39" value="&lt;font style=&quot;color: rgb(128, 128, 128);&quot;&gt;&lt;b&gt;192.168.100.1&lt;/b&gt;&lt;/font&gt;" style="text;html=1;align=center;verticalAlign=middle;whiteSpace=wrap;rounded=0;fontStyle=0;fontColor=#333333;" parent="BorFEs2V50OKoDqsmod9-40" vertex="1">
                    <mxGeometry y="71" width="80" height="20" as="geometry"/>
                </mxCell>
                <mxCell id="BorFEs2V50OKoDqsmod9-42" value="" style="rounded=0;whiteSpace=wrap;html=1;fillColor=none;" parent="1" vertex="1">
                    <mxGeometry x="750" y="640" width="240" height="50" as="geometry"/>
                </mxCell>
                <mxCell id="BorFEs2V50OKoDqsmod9-43" value="" style="rounded=0;whiteSpace=wrap;html=1;fillColor=none;" parent="1" vertex="1">
                    <mxGeometry x="750" y="580" width="242" height="50" as="geometry"/>
                </mxCell>
                <mxCell id="BorFEs2V50OKoDqsmod9-44" value="192.168.100.15:8080" style="text;html=1;align=center;verticalAlign=middle;whiteSpace=wrap;rounded=0;" parent="1" vertex="1">
                    <mxGeometry x="870" y="610" width="120" height="20" as="geometry"/>
                </mxCell>
                <mxCell id="BorFEs2V50OKoDqsmod9-45" value="WebDav:&amp;nbsp;&lt;div&gt;/dav /zotero&lt;/div&gt;" style="text;html=1;align=center;verticalAlign=middle;whiteSpace=wrap;rounded=0;" parent="1" vertex="1">
                    <mxGeometry x="750" y="580" width="80" height="30" as="geometry"/>
                </mxCell>
                <mxCell id="BorFEs2V50OKoDqsmod9-46" value="Web" style="text;html=1;align=center;verticalAlign=middle;whiteSpace=wrap;rounded=0;" parent="1" vertex="1">
                    <mxGeometry x="750" y="640" width="80" height="20" as="geometry"/>
                </mxCell>
                <mxCell id="BorFEs2V50OKoDqsmod9-47" value="192.168.100.15:80" style="text;html=1;align=center;verticalAlign=middle;whiteSpace=wrap;rounded=0;" parent="1" vertex="1">
                    <mxGeometry x="870" y="670" width="120" height="20" as="geometry"/>
                </mxCell>
                <mxCell id="BorFEs2V50OKoDqsmod9-48" value="" style="rounded=0;whiteSpace=wrap;html=1;fillColor=none;" parent="1" vertex="1">
                    <mxGeometry x="750" y="700" width="240" height="50" as="geometry"/>
                </mxCell>
                <mxCell id="BorFEs2V50OKoDqsmod9-49" value="Quartz" style="text;html=1;align=center;verticalAlign=middle;whiteSpace=wrap;rounded=0;" parent="1" vertex="1">
                    <mxGeometry x="940" y="640" width="50" height="20" as="geometry"/>
                </mxCell>
                <mxCell id="BorFEs2V50OKoDqsmod9-50" value="File" style="text;html=1;align=center;verticalAlign=middle;whiteSpace=wrap;rounded=0;" parent="1" vertex="1">
                    <mxGeometry x="750" y="700" width="80" height="20" as="geometry"/>
                </mxCell>
                <mxCell id="BorFEs2V50OKoDqsmod9-51" value="192.168.100.15:80" style="text;html=1;align=center;verticalAlign=middle;whiteSpace=wrap;rounded=0;" parent="1" vertex="1">
                    <mxGeometry x="870" y="730" width="120" height="20" as="geometry"/>
                </mxCell>
                <mxCell id="BorFEs2V50OKoDqsmod9-52" value="" style="rounded=0;whiteSpace=wrap;html=1;fillColor=none;" parent="1" vertex="1">
                    <mxGeometry x="490" y="570" width="190" height="190" as="geometry"/>
                </mxCell>
                <mxCell id="BorFEs2V50OKoDqsmod9-53" value="Nginx&lt;div&gt;Reverse Proxy&lt;/div&gt;" style="text;html=1;align=center;verticalAlign=middle;whiteSpace=wrap;rounded=0;" parent="1" vertex="1">
                    <mxGeometry x="490" y="570" width="100" height="30" as="geometry"/>
                </mxCell>
                <mxCell id="BorFEs2V50OKoDqsmod9-54" value="" style="endArrow=classic;html=1;rounded=0;entryX=0;entryY=0.5;entryDx=0;entryDy=0;exitX=1;exitY=0.5;exitDx=0;exitDy=0;" parent="1" source="BorFEs2V50OKoDqsmod9-56" target="BorFEs2V50OKoDqsmod9-42" edge="1">
                    <mxGeometry width="50" height="50" relative="1" as="geometry">
                        <mxPoint x="640" y="680" as="sourcePoint"/>
                        <mxPoint x="690" y="630" as="targetPoint"/>
                    </mxGeometry>
                </mxCell>
                <mxCell id="BorFEs2V50OKoDqsmod9-55" value="" style="endArrow=classic;html=1;rounded=0;entryX=0;entryY=0.5;entryDx=0;entryDy=0;exitX=1.007;exitY=0.32;exitDx=0;exitDy=0;exitPerimeter=0;" parent="1" edge="1">
                    <mxGeometry width="50" height="50" relative="1" as="geometry">
                        <mxPoint x="680" y="724.78" as="sourcePoint"/>
                        <mxPoint x="749" y="724.78" as="targetPoint"/>
                    </mxGeometry>
                </mxCell>
                <mxCell id="BorFEs2V50OKoDqsmod9-56" value="note." style="text;html=1;align=center;verticalAlign=middle;whiteSpace=wrap;rounded=0;" parent="1" vertex="1">
                    <mxGeometry x="600" y="650" width="80" height="30" as="geometry"/>
                </mxCell>
                <mxCell id="BorFEs2V50OKoDqsmod9-57" value="files." style="text;html=1;align=center;verticalAlign=middle;whiteSpace=wrap;rounded=0;" parent="1" vertex="1">
                    <mxGeometry x="600" y="710" width="80" height="30" as="geometry"/>
                </mxCell>
                <mxCell id="BorFEs2V50OKoDqsmod9-58" value="&lt;div&gt;Local:&lt;/div&gt;192.168.100.15:8080" style="text;html=1;align=center;verticalAlign=middle;whiteSpace=wrap;rounded=0;" parent="1" vertex="1">
                    <mxGeometry x="560" y="584" width="120" height="30" as="geometry"/>
                </mxCell>
                <mxCell id="BorFEs2V50OKoDqsmod9-59" value="" style="endArrow=classic;html=1;rounded=0;entryX=0;entryY=0.5;entryDx=0;entryDy=0;exitX=1.007;exitY=0.32;exitDx=0;exitDy=0;exitPerimeter=0;" parent="1" edge="1">
                    <mxGeometry width="50" height="50" relative="1" as="geometry">
                        <mxPoint x="680" y="600" as="sourcePoint"/>
                        <mxPoint x="749" y="600" as="targetPoint"/>
                    </mxGeometry>
                </mxCell>
                <mxCell id="lbC3D9j0y-DFC1rPoq-H-1" value="" style="rounded=0;whiteSpace=wrap;html=1;fillColor=none;" parent="1" vertex="1">
                    <mxGeometry x="-120" y="530" width="510" height="180" as="geometry"/>
                </mxCell>
                <mxCell id="lbC3D9j0y-DFC1rPoq-H-4" value="NAS" style="text;html=1;align=center;verticalAlign=middle;whiteSpace=wrap;rounded=0;" parent="1" vertex="1">
                    <mxGeometry x="-120" y="508.36" width="40" height="20" as="geometry"/>
                </mxCell>
                <mxCell id="lbC3D9j0y-DFC1rPoq-H-6" value="192.168.100.20" style="text;html=1;align=center;verticalAlign=middle;whiteSpace=wrap;rounded=0;" parent="1" vertex="1">
                    <mxGeometry x="300" y="690" width="90" height="20" as="geometry"/>
                </mxCell>
                <mxCell id="3" value="HomeNetwork&lt;div&gt;192.168.100.0/24&lt;/div&gt;" style="text;html=1;align=center;verticalAlign=middle;whiteSpace=wrap;rounded=0;" vertex="1" parent="1">
                    <mxGeometry x="915" y="860" width="95" height="30" as="geometry"/>
                </mxCell>
            </root>
        </mxGraphModel>
    </diagram>
</mxfile>